<mxfile host="Electron" agent="Mozilla/5.0 (X11; Linux x86_64) AppleWebKit/537.36 (KHTML, like Gecko) draw.io/26.1.1 Chrome/132.0.6834.210 Electron/34.3.2 Safari/537.36" version="26.1.1" pages="3">
  <diagram name="Функциональная схема" id="aAWpBZM7LtzTCQ4hbJxO">
    <mxGraphModel dx="2049" dy="1196" grid="1" gridSize="10" guides="1" tooltips="1" connect="1" arrows="1" fold="1" page="1" pageScale="1" pageWidth="827" pageHeight="1169" math="0" shadow="0">
      <root>
        <mxCell id="0" />
        <mxCell id="1" parent="0" />
        <mxCell id="QeNnaceMox0l2_mvA5aI-4" value="" style="rounded=0;whiteSpace=wrap;html=1;fillColor=none;fontFamily=Gost Type B;fontStyle=2" parent="1" vertex="1">
          <mxGeometry x="78.74" y="19.685" width="728.3449999999999" height="1129.9189999999999" as="geometry" />
        </mxCell>
        <mxCell id="QeNnaceMox0l2_mvA5aI-121" value="&lt;div style=&quot;text-align: center;&quot;&gt;&lt;span style=&quot;background-color: transparent; color: light-dark(rgb(0, 0, 0), rgb(255, 255, 255));&quot;&gt;&lt;font style=&quot;font-size: 10px;&quot;&gt;&lt;span style=&quot;&quot;&gt;Формат А4&lt;/span&gt;&lt;/font&gt;&lt;/span&gt;&lt;/div&gt;" style="text;whiteSpace=wrap;html=1;fontFamily=Gost Type B;fontSize=12;fontColor=default;fontStyle=2" parent="1" vertex="1">
          <mxGeometry x="757.09" y="1142" width="53.91" height="19" as="geometry" />
        </mxCell>
        <mxCell id="VNy_J6QkuCkfOo8xLMrM-1" value="" style="group;fontFamily=Gost Type B;" parent="1" vertex="1" connectable="0">
          <mxGeometry x="79" y="993.0000000000001" width="728.3499999999999" height="157.4550000000005" as="geometry" />
        </mxCell>
        <mxCell id="VNy_J6QkuCkfOo8xLMrM-2" value="Утвердил" style="rounded=0;whiteSpace=wrap;html=1;fontFamily=Gost Type B;fontStyle=2;align=left;" parent="VNy_J6QkuCkfOo8xLMrM-1" vertex="1">
          <mxGeometry y="137.77000000000032" width="66.929" height="19.685" as="geometry" />
        </mxCell>
        <mxCell id="VNy_J6QkuCkfOo8xLMrM-3" value="Н.контроль" style="rounded=0;whiteSpace=wrap;html=1;fontFamily=Gost Type B;fontStyle=2;align=left;" parent="VNy_J6QkuCkfOo8xLMrM-1" vertex="1">
          <mxGeometry y="118.09000000000026" width="66.929" height="19.685" as="geometry" />
        </mxCell>
        <mxCell id="VNy_J6QkuCkfOo8xLMrM-4" value="Т.контроль" style="rounded=0;whiteSpace=wrap;html=1;fontFamily=Gost Type B;fontStyle=2;align=left;" parent="VNy_J6QkuCkfOo8xLMrM-1" vertex="1">
          <mxGeometry y="98.4100000000002" width="66.929" height="19.685" as="geometry" />
        </mxCell>
        <mxCell id="VNy_J6QkuCkfOo8xLMrM-5" value="Проверил" style="rounded=0;whiteSpace=wrap;html=1;fontFamily=Gost Type B;fontStyle=2;align=left;" parent="VNy_J6QkuCkfOo8xLMrM-1" vertex="1">
          <mxGeometry y="78.73000000000013" width="66.929" height="19.685" as="geometry" />
        </mxCell>
        <mxCell id="VNy_J6QkuCkfOo8xLMrM-6" value="Разработал" style="rounded=0;whiteSpace=wrap;html=1;fontFamily=Gost Type B;fontStyle=2;align=left;" parent="VNy_J6QkuCkfOo8xLMrM-1" vertex="1">
          <mxGeometry y="59.05000000000007" width="66.929" height="19.685" as="geometry" />
        </mxCell>
        <mxCell id="VNy_J6QkuCkfOo8xLMrM-7" value="&lt;span style=&quot;&quot;&gt;Сенько Н.С.&lt;/span&gt;" style="rounded=0;whiteSpace=wrap;html=1;fontFamily=Gost Type B;fontStyle=2;align=left;" parent="VNy_J6QkuCkfOo8xLMrM-1" vertex="1">
          <mxGeometry x="66.93" y="59.06000000000008" width="90.551" height="19.685" as="geometry" />
        </mxCell>
        <mxCell id="VNy_J6QkuCkfOo8xLMrM-8" value="&lt;span style=&quot;&quot;&gt;Сиротко С.И.&lt;/span&gt;" style="rounded=0;whiteSpace=wrap;html=1;fontFamily=Gost Type B;fontStyle=2;align=left;" parent="VNy_J6QkuCkfOo8xLMrM-1" vertex="1">
          <mxGeometry x="66.93" y="78.72000000000014" width="90.551" height="19.685" as="geometry" />
        </mxCell>
        <mxCell id="VNy_J6QkuCkfOo8xLMrM-9" value="Гриценко Н.Ю." style="rounded=0;whiteSpace=wrap;html=1;fontFamily=Gost Type B;fontStyle=2;align=left;" parent="VNy_J6QkuCkfOo8xLMrM-1" vertex="1">
          <mxGeometry x="66.93" y="98.42000000000019" width="90.551" height="19.685" as="geometry" />
        </mxCell>
        <mxCell id="VNy_J6QkuCkfOo8xLMrM-10" value="&lt;span style=&quot;font-size: 12px;&quot;&gt;Гриценко Н.Ю.&lt;/span&gt;" style="rounded=0;whiteSpace=wrap;html=1;fontSize=10;fontFamily=Gost Type B;fontStyle=2;align=left;" parent="VNy_J6QkuCkfOo8xLMrM-1" vertex="1">
          <mxGeometry x="66.93" y="118.10000000000025" width="90.551" height="19.685" as="geometry" />
        </mxCell>
        <mxCell id="VNy_J6QkuCkfOo8xLMrM-11" value="&lt;span style=&quot;&quot;&gt;Сиротко С.И&lt;/span&gt;" style="rounded=0;whiteSpace=wrap;html=1;fontFamily=Gost Type B;fontStyle=2;align=left;" parent="VNy_J6QkuCkfOo8xLMrM-1" vertex="1">
          <mxGeometry x="66.93" y="137.77000000000032" width="90.551" height="19.685" as="geometry" />
        </mxCell>
        <mxCell id="VNy_J6QkuCkfOo8xLMrM-12" value="" style="rounded=0;whiteSpace=wrap;html=1;fontFamily=Gost Type B;fontStyle=2;align=left;" parent="VNy_J6QkuCkfOo8xLMrM-1" vertex="1">
          <mxGeometry x="157.48000000000002" y="137.77000000000032" width="59.055" height="19.685" as="geometry" />
        </mxCell>
        <mxCell id="VNy_J6QkuCkfOo8xLMrM-13" value="" style="rounded=0;whiteSpace=wrap;html=1;fontFamily=Gost Type B;fontStyle=2;align=left;" parent="VNy_J6QkuCkfOo8xLMrM-1" vertex="1">
          <mxGeometry x="157.48000000000002" y="59.04000000000008" width="59.055" height="19.685" as="geometry" />
        </mxCell>
        <mxCell id="VNy_J6QkuCkfOo8xLMrM-14" value="" style="rounded=0;whiteSpace=wrap;html=1;fontFamily=Gost Type B;fontStyle=2;align=left;" parent="VNy_J6QkuCkfOo8xLMrM-1" vertex="1">
          <mxGeometry x="157.48000000000002" y="78.72000000000014" width="59.055" height="19.685" as="geometry" />
        </mxCell>
        <mxCell id="VNy_J6QkuCkfOo8xLMrM-15" value="" style="rounded=0;whiteSpace=wrap;html=1;fontFamily=Gost Type B;fontStyle=2;align=left;" parent="VNy_J6QkuCkfOo8xLMrM-1" vertex="1">
          <mxGeometry x="157.48000000000002" y="98.42000000000019" width="59.055" height="19.685" as="geometry" />
        </mxCell>
        <mxCell id="VNy_J6QkuCkfOo8xLMrM-16" value="" style="rounded=0;whiteSpace=wrap;html=1;fontFamily=Gost Type B;fontStyle=2;align=left;" parent="VNy_J6QkuCkfOo8xLMrM-1" vertex="1">
          <mxGeometry x="157.48000000000002" y="118.10000000000025" width="59.055" height="19.685" as="geometry" />
        </mxCell>
        <mxCell id="VNy_J6QkuCkfOo8xLMrM-17" value="" style="rounded=0;whiteSpace=wrap;html=1;fontFamily=Gost Type B;fontStyle=2;align=left;" parent="VNy_J6QkuCkfOo8xLMrM-1" vertex="1">
          <mxGeometry x="216.53000000000003" y="137.77000000000032" width="39.37" height="19.685" as="geometry" />
        </mxCell>
        <mxCell id="VNy_J6QkuCkfOo8xLMrM-18" value="" style="rounded=0;whiteSpace=wrap;html=1;fontFamily=Gost Type B;fontStyle=2;align=left;" parent="VNy_J6QkuCkfOo8xLMrM-1" vertex="1">
          <mxGeometry x="216.53000000000003" y="59.04000000000008" width="39.37" height="19.685" as="geometry" />
        </mxCell>
        <mxCell id="VNy_J6QkuCkfOo8xLMrM-19" value="" style="rounded=0;whiteSpace=wrap;html=1;fontFamily=Gost Type B;fontStyle=2;align=left;" parent="VNy_J6QkuCkfOo8xLMrM-1" vertex="1">
          <mxGeometry x="216.53000000000003" y="78.72000000000014" width="39.37" height="19.685" as="geometry" />
        </mxCell>
        <mxCell id="VNy_J6QkuCkfOo8xLMrM-20" value="" style="rounded=0;whiteSpace=wrap;html=1;fontFamily=Gost Type B;fontStyle=2;align=left;" parent="VNy_J6QkuCkfOo8xLMrM-1" vertex="1">
          <mxGeometry x="216.53000000000003" y="98.42000000000019" width="39.37" height="19.685" as="geometry" />
        </mxCell>
        <mxCell id="VNy_J6QkuCkfOo8xLMrM-21" value="" style="rounded=0;whiteSpace=wrap;html=1;fontFamily=Gost Type B;fontStyle=2;align=left;" parent="VNy_J6QkuCkfOo8xLMrM-1" vertex="1">
          <mxGeometry x="216.53000000000003" y="118.10000000000025" width="39.37" height="19.685" as="geometry" />
        </mxCell>
        <mxCell id="VNy_J6QkuCkfOo8xLMrM-22" value="№ докум." style="rounded=0;whiteSpace=wrap;html=1;fontFamily=Gost Type B;fontStyle=2;align=center;" parent="VNy_J6QkuCkfOo8xLMrM-1" vertex="1">
          <mxGeometry x="66.93" y="39.360000000000014" width="90.551" height="19.685" as="geometry" />
        </mxCell>
        <mxCell id="VNy_J6QkuCkfOo8xLMrM-23" value="Подпись" style="rounded=0;whiteSpace=wrap;html=1;fontFamily=Gost Type B;fontStyle=2;align=center;" parent="VNy_J6QkuCkfOo8xLMrM-1" vertex="1">
          <mxGeometry x="157.48000000000002" y="39.360000000000014" width="59.055" height="19.685" as="geometry" />
        </mxCell>
        <mxCell id="VNy_J6QkuCkfOo8xLMrM-24" value="Дата" style="rounded=0;whiteSpace=wrap;html=1;fontFamily=Gost Type B;fontStyle=2;align=center;" parent="VNy_J6QkuCkfOo8xLMrM-1" vertex="1">
          <mxGeometry x="216.53000000000003" y="39.360000000000014" width="39.37" height="19.685" as="geometry" />
        </mxCell>
        <mxCell id="VNy_J6QkuCkfOo8xLMrM-25" value="" style="rounded=0;whiteSpace=wrap;html=1;fontFamily=Gost Type B;fontStyle=2;align=left;" parent="VNy_J6QkuCkfOo8xLMrM-1" vertex="1">
          <mxGeometry x="66.93" y="19.67999999999995" width="90.551" height="19.685" as="geometry" />
        </mxCell>
        <mxCell id="VNy_J6QkuCkfOo8xLMrM-26" value="" style="rounded=0;whiteSpace=wrap;html=1;fontFamily=Gost Type B;fontStyle=2;align=left;" parent="VNy_J6QkuCkfOo8xLMrM-1" vertex="1">
          <mxGeometry x="157.48000000000002" y="19.67999999999995" width="59.055" height="19.685" as="geometry" />
        </mxCell>
        <mxCell id="VNy_J6QkuCkfOo8xLMrM-27" value="" style="rounded=0;whiteSpace=wrap;html=1;fontFamily=Gost Type B;fontStyle=2;align=left;" parent="VNy_J6QkuCkfOo8xLMrM-1" vertex="1">
          <mxGeometry x="216.53000000000003" y="19.67999999999995" width="39.37" height="19.685" as="geometry" />
        </mxCell>
        <mxCell id="VNy_J6QkuCkfOo8xLMrM-28" value="" style="rounded=0;whiteSpace=wrap;html=1;fontFamily=Gost Type B;fontStyle=2;align=left;" parent="VNy_J6QkuCkfOo8xLMrM-1" vertex="1">
          <mxGeometry x="66.93" width="90.551" height="19.685" as="geometry" />
        </mxCell>
        <mxCell id="VNy_J6QkuCkfOo8xLMrM-29" value="" style="rounded=0;whiteSpace=wrap;html=1;fontFamily=Gost Type B;fontStyle=2;align=left;" parent="VNy_J6QkuCkfOo8xLMrM-1" vertex="1">
          <mxGeometry x="157.48000000000002" width="59.055" height="19.685" as="geometry" />
        </mxCell>
        <mxCell id="VNy_J6QkuCkfOo8xLMrM-30" value="" style="rounded=0;whiteSpace=wrap;html=1;fontFamily=Gost Type B;fontStyle=2;align=left;" parent="VNy_J6QkuCkfOo8xLMrM-1" vertex="1">
          <mxGeometry x="216.53000000000003" width="39.37" height="19.685" as="geometry" />
        </mxCell>
        <mxCell id="VNy_J6QkuCkfOo8xLMrM-31" value="Изм." style="rounded=0;whiteSpace=wrap;html=1;fontFamily=Gost Type B;fontStyle=2;align=center;" parent="VNy_J6QkuCkfOo8xLMrM-1" vertex="1">
          <mxGeometry y="39.360000000000014" width="27.558999999999997" height="19.685" as="geometry" />
        </mxCell>
        <mxCell id="VNy_J6QkuCkfOo8xLMrM-32" value="Л." style="rounded=0;whiteSpace=wrap;html=1;fontFamily=Gost Type B;fontStyle=2;align=center;" parent="VNy_J6QkuCkfOo8xLMrM-1" vertex="1">
          <mxGeometry x="27.56" y="39.360000000000014" width="39.37" height="19.685" as="geometry" />
        </mxCell>
        <mxCell id="VNy_J6QkuCkfOo8xLMrM-33" value="" style="rounded=0;whiteSpace=wrap;html=1;fontFamily=Gost Type B;fontStyle=2;align=left;" parent="VNy_J6QkuCkfOo8xLMrM-1" vertex="1">
          <mxGeometry y="19.67999999999995" width="27.558999999999997" height="19.685" as="geometry" />
        </mxCell>
        <mxCell id="VNy_J6QkuCkfOo8xLMrM-34" value="" style="rounded=0;whiteSpace=wrap;html=1;fontFamily=Gost Type B;fontStyle=2;align=left;" parent="VNy_J6QkuCkfOo8xLMrM-1" vertex="1">
          <mxGeometry x="27.56" y="19.67999999999995" width="39.37" height="19.685" as="geometry" />
        </mxCell>
        <mxCell id="VNy_J6QkuCkfOo8xLMrM-35" value="" style="rounded=0;whiteSpace=wrap;html=1;fontFamily=Gost Type B;fontStyle=2;align=left;" parent="VNy_J6QkuCkfOo8xLMrM-1" vertex="1">
          <mxGeometry width="27.558999999999997" height="19.685" as="geometry" />
        </mxCell>
        <mxCell id="VNy_J6QkuCkfOo8xLMrM-36" value="" style="rounded=0;whiteSpace=wrap;html=1;fontFamily=Gost Type B;fontStyle=2;align=left;" parent="VNy_J6QkuCkfOo8xLMrM-1" vertex="1">
          <mxGeometry x="27.56" width="39.37" height="19.685" as="geometry" />
        </mxCell>
        <mxCell id="VNy_J6QkuCkfOo8xLMrM-37" value="&lt;span lang=&quot;RU&quot; style=&quot;text-align: start;&quot;&gt;&lt;font style=&quot;font-size: 18px;&quot;&gt;Функциональная схема&amp;nbsp;&lt;/font&gt;&lt;/span&gt;&lt;div style=&quot;&quot;&gt;&lt;span lang=&quot;RU&quot; style=&quot;text-align: start;&quot;&gt;&lt;font style=&quot;font-size: 18px;&quot;&gt;алгоритма, реализующего программное средство.&amp;nbsp;&lt;/font&gt;&lt;/span&gt;&lt;/div&gt;&lt;div style=&quot;&quot;&gt;&lt;span lang=&quot;RU&quot; style=&quot;text-align: start;&quot;&gt;&lt;font style=&quot;font-size: 18px;&quot;&gt;Схема алгоритма&lt;/font&gt;&lt;/span&gt;&lt;/div&gt;" style="rounded=0;whiteSpace=wrap;html=1;fontFamily=Gost Type B;fontStyle=2;align=center;" parent="VNy_J6QkuCkfOo8xLMrM-1" vertex="1">
          <mxGeometry x="255.9" y="59.030000000000314" width="275.59" height="98.425" as="geometry" />
        </mxCell>
        <mxCell id="VNy_J6QkuCkfOo8xLMrM-38" value="&lt;span style=&quot;font-size: 26px;&quot;&gt;ГУИР.253505-01 СА&lt;/span&gt;" style="rounded=0;whiteSpace=wrap;html=1;fontFamily=Gost Type B;fontStyle=2;align=center;" parent="VNy_J6QkuCkfOo8xLMrM-1" vertex="1">
          <mxGeometry x="255.9" width="472.1" height="59.06" as="geometry" />
        </mxCell>
        <mxCell id="VNy_J6QkuCkfOo8xLMrM-40" value="&lt;span style=&quot;font-size: 16px;&quot;&gt;Кафедра информатики,&lt;/span&gt;&lt;br style=&quot;font-size: 16px;&quot;&gt;&lt;span style=&quot;font-size: 16px;&quot;&gt;гр. 253505&lt;/span&gt;" style="rounded=0;whiteSpace=wrap;html=1;fontFamily=Gost Type B;fontStyle=2;align=center;" parent="VNy_J6QkuCkfOo8xLMrM-1" vertex="1">
          <mxGeometry x="531.49" y="98.40000000000043" width="196.85" height="59.055" as="geometry" />
        </mxCell>
        <mxCell id="VNy_J6QkuCkfOo8xLMrM-41" value="Литера" style="rounded=0;whiteSpace=wrap;html=1;fontFamily=Gost Type B;fontStyle=2;align=center;" parent="VNy_J6QkuCkfOo8xLMrM-1" vertex="1">
          <mxGeometry x="531.49" y="59.050000000000296" width="59.055" height="19.685" as="geometry" />
        </mxCell>
        <mxCell id="VNy_J6QkuCkfOo8xLMrM-42" value="Лист." style="rounded=0;whiteSpace=wrap;html=1;fontFamily=Gost Type B;fontStyle=2;align=center;" parent="VNy_J6QkuCkfOo8xLMrM-1" vertex="1">
          <mxGeometry x="590.54" y="59.030000000000314" width="59.055" height="19.685" as="geometry" />
        </mxCell>
        <mxCell id="VNy_J6QkuCkfOo8xLMrM-43" value="Листов" style="rounded=0;whiteSpace=wrap;html=1;fontFamily=Gost Type B;fontStyle=2;align=center;" parent="VNy_J6QkuCkfOo8xLMrM-1" vertex="1">
          <mxGeometry x="649.5899999999999" y="59.030000000000314" width="78.74" height="19.685" as="geometry" />
        </mxCell>
        <mxCell id="VNy_J6QkuCkfOo8xLMrM-44" value="" style="rounded=0;whiteSpace=wrap;html=1;fontFamily=Gost Type B;fontStyle=2;align=center;" parent="VNy_J6QkuCkfOo8xLMrM-1" vertex="1">
          <mxGeometry x="590.55" y="78.71000000000038" width="59.055" height="19.685" as="geometry" />
        </mxCell>
        <mxCell id="VNy_J6QkuCkfOo8xLMrM-45" value="1" style="rounded=0;whiteSpace=wrap;html=1;fontFamily=Gost Type B;fontStyle=2;align=center;" parent="VNy_J6QkuCkfOo8xLMrM-1" vertex="1">
          <mxGeometry x="649.6099999999999" y="78.71000000000038" width="78.74" height="19.685" as="geometry" />
        </mxCell>
        <mxCell id="VNy_J6QkuCkfOo8xLMrM-46" value="" style="rounded=0;whiteSpace=wrap;html=1;fontFamily=Gost Type B;fontStyle=2;align=center;" parent="VNy_J6QkuCkfOo8xLMrM-1" vertex="1">
          <mxGeometry x="531.49" y="78.73000000000036" width="19.685" height="19.685" as="geometry" />
        </mxCell>
        <mxCell id="VNy_J6QkuCkfOo8xLMrM-47" value="T" style="rounded=0;whiteSpace=wrap;html=1;fontFamily=Gost Type B;fontStyle=2;align=center;" parent="VNy_J6QkuCkfOo8xLMrM-1" vertex="1">
          <mxGeometry x="551.17" y="78.71000000000038" width="19.685" height="19.685" as="geometry" />
        </mxCell>
        <mxCell id="VNy_J6QkuCkfOo8xLMrM-48" value="" style="rounded=0;whiteSpace=wrap;html=1;fontFamily=Gost Type B;fontStyle=2;align=center;" parent="VNy_J6QkuCkfOo8xLMrM-1" vertex="1">
          <mxGeometry x="570.8499999999999" y="78.73000000000036" width="19.685" height="19.685" as="geometry" />
        </mxCell>
        <mxCell id="hROM5GHA-1EMylYeOzcH-1" value="&lt;font face=&quot;GOST type B&quot; style=&quot;font-size: 26px;&quot;&gt;&lt;i style=&quot;&quot;&gt;Инициализация приложения&lt;/i&gt;&lt;/font&gt;" style="rounded=0;whiteSpace=wrap;html=1;" parent="1" vertex="1">
          <mxGeometry x="322.91" y="160" width="240" height="90" as="geometry" />
        </mxCell>
        <mxCell id="hROM5GHA-1EMylYeOzcH-2" value="&lt;font face=&quot;GOST type B&quot; style=&quot;font-size: 26px;&quot;&gt;&lt;i style=&quot;&quot;&gt;Инициализация ядра FUSE&lt;/i&gt;&lt;/font&gt;" style="rounded=0;whiteSpace=wrap;html=1;" parent="1" vertex="1">
          <mxGeometry x="322.91" y="300" width="240" height="90" as="geometry" />
        </mxCell>
        <mxCell id="hROM5GHA-1EMylYeOzcH-4" value="&lt;font face=&quot;GOST type B&quot;&gt;&lt;span style=&quot;font-size: 26px;&quot;&gt;&lt;i&gt;Обработка системных вызовов файловой системы&lt;/i&gt;&lt;/span&gt;&lt;/font&gt;" style="rounded=0;whiteSpace=wrap;html=1;" parent="1" vertex="1">
          <mxGeometry x="322.91" y="450" width="240" height="90" as="geometry" />
        </mxCell>
        <mxCell id="hROM5GHA-1EMylYeOzcH-6" value="&lt;font face=&quot;GOST type B&quot;&gt;&lt;span style=&quot;font-size: 26px;&quot;&gt;&lt;i&gt;Обработка сигнала звершения работы&lt;/i&gt;&lt;/span&gt;&lt;/font&gt;" style="rounded=0;whiteSpace=wrap;html=1;" parent="1" vertex="1">
          <mxGeometry x="322.91" y="600" width="240" height="90" as="geometry" />
        </mxCell>
        <mxCell id="hROM5GHA-1EMylYeOzcH-8" value="&lt;font face=&quot;GOST type B&quot;&gt;&lt;span style=&quot;font-size: 26px;&quot;&gt;&lt;i&gt;Завершение работы&lt;/i&gt;&lt;/span&gt;&lt;/font&gt;" style="rounded=0;whiteSpace=wrap;html=1;" parent="1" vertex="1">
          <mxGeometry x="322.91" y="750" width="240" height="90" as="geometry" />
        </mxCell>
        <mxCell id="hROM5GHA-1EMylYeOzcH-14" value="" style="endArrow=none;html=1;rounded=0;entryX=0.5;entryY=1;entryDx=0;entryDy=0;exitX=0.5;exitY=0;exitDx=0;exitDy=0;" parent="1" source="hROM5GHA-1EMylYeOzcH-2" target="hROM5GHA-1EMylYeOzcH-1" edge="1">
          <mxGeometry width="50" height="50" relative="1" as="geometry">
            <mxPoint x="400" y="310" as="sourcePoint" />
            <mxPoint x="450" y="260" as="targetPoint" />
          </mxGeometry>
        </mxCell>
        <mxCell id="hROM5GHA-1EMylYeOzcH-15" value="" style="endArrow=none;html=1;rounded=0;entryX=0.5;entryY=1;entryDx=0;entryDy=0;exitX=0.5;exitY=0;exitDx=0;exitDy=0;" parent="1" source="hROM5GHA-1EMylYeOzcH-4" edge="1">
          <mxGeometry width="50" height="50" relative="1" as="geometry">
            <mxPoint x="442.57" y="440" as="sourcePoint" />
            <mxPoint x="442.57" y="390" as="targetPoint" />
          </mxGeometry>
        </mxCell>
        <mxCell id="hROM5GHA-1EMylYeOzcH-16" value="" style="endArrow=none;html=1;rounded=0;entryX=0.5;entryY=1;entryDx=0;entryDy=0;exitX=0.5;exitY=0;exitDx=0;exitDy=0;" parent="1" source="hROM5GHA-1EMylYeOzcH-6" target="hROM5GHA-1EMylYeOzcH-4" edge="1">
          <mxGeometry width="50" height="50" relative="1" as="geometry">
            <mxPoint x="442.57" y="590" as="sourcePoint" />
            <mxPoint x="442.57" y="540" as="targetPoint" />
          </mxGeometry>
        </mxCell>
        <mxCell id="hROM5GHA-1EMylYeOzcH-17" value="" style="endArrow=none;html=1;rounded=0;entryX=0.5;entryY=1;entryDx=0;entryDy=0;exitX=0.5;exitY=0;exitDx=0;exitDy=0;" parent="1" source="hROM5GHA-1EMylYeOzcH-8" edge="1">
          <mxGeometry width="50" height="50" relative="1" as="geometry">
            <mxPoint x="442.57" y="740" as="sourcePoint" />
            <mxPoint x="442.57" y="690" as="targetPoint" />
          </mxGeometry>
        </mxCell>
      </root>
    </mxGraphModel>
  </diagram>
  <diagram name="Схема алгоритма" id="jqmgMdGXXem9CNiq-k_M">
    <mxGraphModel dx="1434" dy="837" grid="1" gridSize="10" guides="1" tooltips="1" connect="1" arrows="1" fold="1" page="1" pageScale="1" pageWidth="827" pageHeight="1169" math="0" shadow="0">
      <root>
        <mxCell id="TkMj4FX2ceQhgoEo25rc-0" />
        <mxCell id="TkMj4FX2ceQhgoEo25rc-1" parent="TkMj4FX2ceQhgoEo25rc-0" />
        <mxCell id="TkMj4FX2ceQhgoEo25rc-2" value="" style="rounded=0;whiteSpace=wrap;html=1;fillColor=none;fontFamily=Gost Type B;fontStyle=2" parent="TkMj4FX2ceQhgoEo25rc-1" vertex="1">
          <mxGeometry x="79" y="20.005000000000003" width="728.3449999999999" height="1129.9189999999999" as="geometry" />
        </mxCell>
        <mxCell id="TkMj4FX2ceQhgoEo25rc-68" value="&lt;div style=&quot;text-align: center;&quot;&gt;&lt;span style=&quot;background-color: transparent; color: light-dark(rgb(0, 0, 0), rgb(255, 255, 255));&quot;&gt;&lt;font style=&quot;font-size: 10px;&quot;&gt;&lt;span style=&quot;&quot;&gt;Формат А4&lt;/span&gt;&lt;/font&gt;&lt;/span&gt;&lt;/div&gt;" style="text;whiteSpace=wrap;html=1;fontFamily=Gost Type B;fontSize=12;fontColor=default;fontStyle=2" parent="TkMj4FX2ceQhgoEo25rc-1" vertex="1">
          <mxGeometry x="757.09" y="1142" width="53.91" height="19" as="geometry" />
        </mxCell>
        <mxCell id="vNc9h8LfgFrBhlQmuZta-0" value="" style="group;fontFamily=Gost Type B;" parent="TkMj4FX2ceQhgoEo25rc-1" vertex="1" connectable="0">
          <mxGeometry x="79" y="993.0000000000001" width="728.3499999999999" height="157.4550000000005" as="geometry" />
        </mxCell>
        <mxCell id="vNc9h8LfgFrBhlQmuZta-1" value="Утвердил" style="rounded=0;whiteSpace=wrap;html=1;fontFamily=Gost Type B;fontStyle=2;align=left;" parent="vNc9h8LfgFrBhlQmuZta-0" vertex="1">
          <mxGeometry y="137.77000000000032" width="66.929" height="19.685" as="geometry" />
        </mxCell>
        <mxCell id="vNc9h8LfgFrBhlQmuZta-2" value="Н.контроль" style="rounded=0;whiteSpace=wrap;html=1;fontFamily=Gost Type B;fontStyle=2;align=left;" parent="vNc9h8LfgFrBhlQmuZta-0" vertex="1">
          <mxGeometry y="118.09000000000026" width="66.929" height="19.685" as="geometry" />
        </mxCell>
        <mxCell id="vNc9h8LfgFrBhlQmuZta-3" value="Т.контроль" style="rounded=0;whiteSpace=wrap;html=1;fontFamily=Gost Type B;fontStyle=2;align=left;" parent="vNc9h8LfgFrBhlQmuZta-0" vertex="1">
          <mxGeometry y="98.4100000000002" width="66.929" height="19.685" as="geometry" />
        </mxCell>
        <mxCell id="vNc9h8LfgFrBhlQmuZta-4" value="Проверил" style="rounded=0;whiteSpace=wrap;html=1;fontFamily=Gost Type B;fontStyle=2;align=left;" parent="vNc9h8LfgFrBhlQmuZta-0" vertex="1">
          <mxGeometry y="78.73000000000013" width="66.929" height="19.685" as="geometry" />
        </mxCell>
        <mxCell id="vNc9h8LfgFrBhlQmuZta-5" value="Разработал" style="rounded=0;whiteSpace=wrap;html=1;fontFamily=Gost Type B;fontStyle=2;align=left;" parent="vNc9h8LfgFrBhlQmuZta-0" vertex="1">
          <mxGeometry y="59.05000000000007" width="66.929" height="19.685" as="geometry" />
        </mxCell>
        <mxCell id="vNc9h8LfgFrBhlQmuZta-6" value="&lt;span style=&quot;&quot;&gt;Горгун А. В.&lt;/span&gt;" style="rounded=0;whiteSpace=wrap;html=1;fontFamily=Gost Type B;fontStyle=2;align=left;" parent="vNc9h8LfgFrBhlQmuZta-0" vertex="1">
          <mxGeometry x="66.93" y="59.04000000000008" width="90.551" height="19.685" as="geometry" />
        </mxCell>
        <mxCell id="vNc9h8LfgFrBhlQmuZta-7" value="&lt;span style=&quot;&quot;&gt;Сиротко С.И.&lt;/span&gt;" style="rounded=0;whiteSpace=wrap;html=1;fontFamily=Gost Type B;fontStyle=2;align=left;" parent="vNc9h8LfgFrBhlQmuZta-0" vertex="1">
          <mxGeometry x="66.93" y="78.72000000000014" width="90.551" height="19.685" as="geometry" />
        </mxCell>
        <mxCell id="vNc9h8LfgFrBhlQmuZta-8" value="Гриценко Н.Ю." style="rounded=0;whiteSpace=wrap;html=1;fontFamily=Gost Type B;fontStyle=2;align=left;" parent="vNc9h8LfgFrBhlQmuZta-0" vertex="1">
          <mxGeometry x="66.93" y="98.42000000000019" width="90.551" height="19.685" as="geometry" />
        </mxCell>
        <mxCell id="vNc9h8LfgFrBhlQmuZta-9" value="&lt;span style=&quot;font-size: 12px;&quot;&gt;Гриценко Н.Ю.&lt;/span&gt;" style="rounded=0;whiteSpace=wrap;html=1;fontSize=10;fontFamily=Gost Type B;fontStyle=2;align=left;" parent="vNc9h8LfgFrBhlQmuZta-0" vertex="1">
          <mxGeometry x="66.93" y="118.10000000000025" width="90.551" height="19.685" as="geometry" />
        </mxCell>
        <mxCell id="vNc9h8LfgFrBhlQmuZta-10" value="&lt;span style=&quot;&quot;&gt;Сиротко С.И&lt;/span&gt;" style="rounded=0;whiteSpace=wrap;html=1;fontFamily=Gost Type B;fontStyle=2;align=left;" parent="vNc9h8LfgFrBhlQmuZta-0" vertex="1">
          <mxGeometry x="66.93" y="137.77000000000032" width="90.551" height="19.685" as="geometry" />
        </mxCell>
        <mxCell id="vNc9h8LfgFrBhlQmuZta-11" value="" style="rounded=0;whiteSpace=wrap;html=1;fontFamily=Gost Type B;fontStyle=2;align=left;" parent="vNc9h8LfgFrBhlQmuZta-0" vertex="1">
          <mxGeometry x="157.48000000000002" y="137.77000000000032" width="59.055" height="19.685" as="geometry" />
        </mxCell>
        <mxCell id="vNc9h8LfgFrBhlQmuZta-12" value="" style="rounded=0;whiteSpace=wrap;html=1;fontFamily=Gost Type B;fontStyle=2;align=left;" parent="vNc9h8LfgFrBhlQmuZta-0" vertex="1">
          <mxGeometry x="157.48000000000002" y="59.04000000000008" width="59.055" height="19.685" as="geometry" />
        </mxCell>
        <mxCell id="vNc9h8LfgFrBhlQmuZta-13" value="" style="rounded=0;whiteSpace=wrap;html=1;fontFamily=Gost Type B;fontStyle=2;align=left;" parent="vNc9h8LfgFrBhlQmuZta-0" vertex="1">
          <mxGeometry x="157.48000000000002" y="78.72000000000014" width="59.055" height="19.685" as="geometry" />
        </mxCell>
        <mxCell id="vNc9h8LfgFrBhlQmuZta-14" value="" style="rounded=0;whiteSpace=wrap;html=1;fontFamily=Gost Type B;fontStyle=2;align=left;" parent="vNc9h8LfgFrBhlQmuZta-0" vertex="1">
          <mxGeometry x="157.48000000000002" y="98.42000000000019" width="59.055" height="19.685" as="geometry" />
        </mxCell>
        <mxCell id="vNc9h8LfgFrBhlQmuZta-15" value="" style="rounded=0;whiteSpace=wrap;html=1;fontFamily=Gost Type B;fontStyle=2;align=left;" parent="vNc9h8LfgFrBhlQmuZta-0" vertex="1">
          <mxGeometry x="157.48000000000002" y="118.10000000000025" width="59.055" height="19.685" as="geometry" />
        </mxCell>
        <mxCell id="vNc9h8LfgFrBhlQmuZta-16" value="" style="rounded=0;whiteSpace=wrap;html=1;fontFamily=Gost Type B;fontStyle=2;align=left;" parent="vNc9h8LfgFrBhlQmuZta-0" vertex="1">
          <mxGeometry x="216.53000000000003" y="137.77000000000032" width="39.37" height="19.685" as="geometry" />
        </mxCell>
        <mxCell id="vNc9h8LfgFrBhlQmuZta-17" value="" style="rounded=0;whiteSpace=wrap;html=1;fontFamily=Gost Type B;fontStyle=2;align=left;" parent="vNc9h8LfgFrBhlQmuZta-0" vertex="1">
          <mxGeometry x="216.53000000000003" y="59.04000000000008" width="39.37" height="19.685" as="geometry" />
        </mxCell>
        <mxCell id="vNc9h8LfgFrBhlQmuZta-18" value="" style="rounded=0;whiteSpace=wrap;html=1;fontFamily=Gost Type B;fontStyle=2;align=left;" parent="vNc9h8LfgFrBhlQmuZta-0" vertex="1">
          <mxGeometry x="216.53000000000003" y="78.72000000000014" width="39.37" height="19.685" as="geometry" />
        </mxCell>
        <mxCell id="vNc9h8LfgFrBhlQmuZta-19" value="" style="rounded=0;whiteSpace=wrap;html=1;fontFamily=Gost Type B;fontStyle=2;align=left;" parent="vNc9h8LfgFrBhlQmuZta-0" vertex="1">
          <mxGeometry x="216.53000000000003" y="98.42000000000019" width="39.37" height="19.685" as="geometry" />
        </mxCell>
        <mxCell id="vNc9h8LfgFrBhlQmuZta-20" value="" style="rounded=0;whiteSpace=wrap;html=1;fontFamily=Gost Type B;fontStyle=2;align=left;" parent="vNc9h8LfgFrBhlQmuZta-0" vertex="1">
          <mxGeometry x="216.53000000000003" y="118.10000000000025" width="39.37" height="19.685" as="geometry" />
        </mxCell>
        <mxCell id="vNc9h8LfgFrBhlQmuZta-21" value="№ докум." style="rounded=0;whiteSpace=wrap;html=1;fontFamily=Gost Type B;fontStyle=2;align=center;" parent="vNc9h8LfgFrBhlQmuZta-0" vertex="1">
          <mxGeometry x="66.93" y="39.360000000000014" width="90.551" height="19.685" as="geometry" />
        </mxCell>
        <mxCell id="vNc9h8LfgFrBhlQmuZta-22" value="Подпись" style="rounded=0;whiteSpace=wrap;html=1;fontFamily=Gost Type B;fontStyle=2;align=center;" parent="vNc9h8LfgFrBhlQmuZta-0" vertex="1">
          <mxGeometry x="157.48000000000002" y="39.360000000000014" width="59.055" height="19.685" as="geometry" />
        </mxCell>
        <mxCell id="vNc9h8LfgFrBhlQmuZta-23" value="Дата" style="rounded=0;whiteSpace=wrap;html=1;fontFamily=Gost Type B;fontStyle=2;align=center;" parent="vNc9h8LfgFrBhlQmuZta-0" vertex="1">
          <mxGeometry x="216.53000000000003" y="39.360000000000014" width="39.37" height="19.685" as="geometry" />
        </mxCell>
        <mxCell id="vNc9h8LfgFrBhlQmuZta-24" value="" style="rounded=0;whiteSpace=wrap;html=1;fontFamily=Gost Type B;fontStyle=2;align=left;" parent="vNc9h8LfgFrBhlQmuZta-0" vertex="1">
          <mxGeometry x="66.93" y="19.67999999999995" width="90.551" height="19.685" as="geometry" />
        </mxCell>
        <mxCell id="vNc9h8LfgFrBhlQmuZta-25" value="" style="rounded=0;whiteSpace=wrap;html=1;fontFamily=Gost Type B;fontStyle=2;align=left;" parent="vNc9h8LfgFrBhlQmuZta-0" vertex="1">
          <mxGeometry x="157.48000000000002" y="19.67999999999995" width="59.055" height="19.685" as="geometry" />
        </mxCell>
        <mxCell id="vNc9h8LfgFrBhlQmuZta-26" value="" style="rounded=0;whiteSpace=wrap;html=1;fontFamily=Gost Type B;fontStyle=2;align=left;" parent="vNc9h8LfgFrBhlQmuZta-0" vertex="1">
          <mxGeometry x="216.53000000000003" y="19.67999999999995" width="39.37" height="19.685" as="geometry" />
        </mxCell>
        <mxCell id="vNc9h8LfgFrBhlQmuZta-27" value="" style="rounded=0;whiteSpace=wrap;html=1;fontFamily=Gost Type B;fontStyle=2;align=left;" parent="vNc9h8LfgFrBhlQmuZta-0" vertex="1">
          <mxGeometry x="66.93" width="90.551" height="19.685" as="geometry" />
        </mxCell>
        <mxCell id="vNc9h8LfgFrBhlQmuZta-28" value="" style="rounded=0;whiteSpace=wrap;html=1;fontFamily=Gost Type B;fontStyle=2;align=left;" parent="vNc9h8LfgFrBhlQmuZta-0" vertex="1">
          <mxGeometry x="157.48000000000002" width="59.055" height="19.685" as="geometry" />
        </mxCell>
        <mxCell id="vNc9h8LfgFrBhlQmuZta-29" value="" style="rounded=0;whiteSpace=wrap;html=1;fontFamily=Gost Type B;fontStyle=2;align=left;" parent="vNc9h8LfgFrBhlQmuZta-0" vertex="1">
          <mxGeometry x="216.53000000000003" width="39.37" height="19.685" as="geometry" />
        </mxCell>
        <mxCell id="vNc9h8LfgFrBhlQmuZta-30" value="Изм." style="rounded=0;whiteSpace=wrap;html=1;fontFamily=Gost Type B;fontStyle=2;align=center;" parent="vNc9h8LfgFrBhlQmuZta-0" vertex="1">
          <mxGeometry y="39.360000000000014" width="27.558999999999997" height="19.685" as="geometry" />
        </mxCell>
        <mxCell id="vNc9h8LfgFrBhlQmuZta-31" value="Л." style="rounded=0;whiteSpace=wrap;html=1;fontFamily=Gost Type B;fontStyle=2;align=center;" parent="vNc9h8LfgFrBhlQmuZta-0" vertex="1">
          <mxGeometry x="27.56" y="39.360000000000014" width="39.37" height="19.685" as="geometry" />
        </mxCell>
        <mxCell id="vNc9h8LfgFrBhlQmuZta-32" value="" style="rounded=0;whiteSpace=wrap;html=1;fontFamily=Gost Type B;fontStyle=2;align=left;" parent="vNc9h8LfgFrBhlQmuZta-0" vertex="1">
          <mxGeometry y="19.67999999999995" width="27.558999999999997" height="19.685" as="geometry" />
        </mxCell>
        <mxCell id="vNc9h8LfgFrBhlQmuZta-33" value="" style="rounded=0;whiteSpace=wrap;html=1;fontFamily=Gost Type B;fontStyle=2;align=left;" parent="vNc9h8LfgFrBhlQmuZta-0" vertex="1">
          <mxGeometry x="27.56" y="19.67999999999995" width="39.37" height="19.685" as="geometry" />
        </mxCell>
        <mxCell id="vNc9h8LfgFrBhlQmuZta-34" value="" style="rounded=0;whiteSpace=wrap;html=1;fontFamily=Gost Type B;fontStyle=2;align=left;" parent="vNc9h8LfgFrBhlQmuZta-0" vertex="1">
          <mxGeometry width="27.558999999999997" height="19.685" as="geometry" />
        </mxCell>
        <mxCell id="vNc9h8LfgFrBhlQmuZta-35" value="" style="rounded=0;whiteSpace=wrap;html=1;fontFamily=Gost Type B;fontStyle=2;align=left;" parent="vNc9h8LfgFrBhlQmuZta-0" vertex="1">
          <mxGeometry x="27.56" width="39.37" height="19.685" as="geometry" />
        </mxCell>
        <mxCell id="vNc9h8LfgFrBhlQmuZta-36" value="&lt;span style=&quot;text-align: start;&quot; lang=&quot;RU&quot;&gt;&lt;font style=&quot;font-size: 18px;&quot;&gt;Блок схема алгоритма.&lt;/font&gt;&lt;/span&gt;&lt;div&gt;&lt;span style=&quot;text-align: start;&quot; lang=&quot;RU&quot;&gt;&lt;font style=&quot;font-size: 18px;&quot;&gt;Схема алгоритма&lt;/font&gt;&lt;/span&gt;&lt;/div&gt;" style="rounded=0;whiteSpace=wrap;html=1;fontFamily=Gost Type B;fontStyle=2;align=center;" parent="vNc9h8LfgFrBhlQmuZta-0" vertex="1">
          <mxGeometry x="255.9" y="59.030000000000314" width="275.59" height="98.425" as="geometry" />
        </mxCell>
        <mxCell id="vNc9h8LfgFrBhlQmuZta-37" value="&lt;span style=&quot;font-size: 26px;&quot;&gt;ГУИР.253505-02 СА&lt;/span&gt;" style="rounded=0;whiteSpace=wrap;html=1;fontFamily=Gost Type B;fontStyle=2;align=center;" parent="vNc9h8LfgFrBhlQmuZta-0" vertex="1">
          <mxGeometry x="255.9" width="472.1" height="59.06" as="geometry" />
        </mxCell>
        <mxCell id="vNc9h8LfgFrBhlQmuZta-38" value="&lt;span style=&quot;font-size: 16px;&quot;&gt;Кафедра информатики,&lt;/span&gt;&lt;br style=&quot;font-size: 16px;&quot;&gt;&lt;span style=&quot;font-size: 16px;&quot;&gt;гр. 253505&lt;/span&gt;" style="rounded=0;whiteSpace=wrap;html=1;fontFamily=Gost Type B;fontStyle=2;align=center;" parent="vNc9h8LfgFrBhlQmuZta-0" vertex="1">
          <mxGeometry x="531.49" y="98.40000000000043" width="196.85" height="59.055" as="geometry" />
        </mxCell>
        <mxCell id="vNc9h8LfgFrBhlQmuZta-39" value="Литера" style="rounded=0;whiteSpace=wrap;html=1;fontFamily=Gost Type B;fontStyle=2;align=center;" parent="vNc9h8LfgFrBhlQmuZta-0" vertex="1">
          <mxGeometry x="531.49" y="59.050000000000296" width="59.055" height="19.685" as="geometry" />
        </mxCell>
        <mxCell id="vNc9h8LfgFrBhlQmuZta-40" value="Лист." style="rounded=0;whiteSpace=wrap;html=1;fontFamily=Gost Type B;fontStyle=2;align=center;" parent="vNc9h8LfgFrBhlQmuZta-0" vertex="1">
          <mxGeometry x="590.54" y="59.030000000000314" width="59.055" height="19.685" as="geometry" />
        </mxCell>
        <mxCell id="vNc9h8LfgFrBhlQmuZta-41" value="Листов" style="rounded=0;whiteSpace=wrap;html=1;fontFamily=Gost Type B;fontStyle=2;align=center;" parent="vNc9h8LfgFrBhlQmuZta-0" vertex="1">
          <mxGeometry x="649.5899999999999" y="59.030000000000314" width="78.74" height="19.685" as="geometry" />
        </mxCell>
        <mxCell id="vNc9h8LfgFrBhlQmuZta-42" value="" style="rounded=0;whiteSpace=wrap;html=1;fontFamily=Gost Type B;fontStyle=2;align=center;" parent="vNc9h8LfgFrBhlQmuZta-0" vertex="1">
          <mxGeometry x="590.55" y="78.71000000000038" width="59.055" height="19.685" as="geometry" />
        </mxCell>
        <mxCell id="vNc9h8LfgFrBhlQmuZta-43" value="1" style="rounded=0;whiteSpace=wrap;html=1;fontFamily=Gost Type B;fontStyle=2;align=center;" parent="vNc9h8LfgFrBhlQmuZta-0" vertex="1">
          <mxGeometry x="649.6099999999999" y="78.71000000000038" width="78.74" height="19.685" as="geometry" />
        </mxCell>
        <mxCell id="vNc9h8LfgFrBhlQmuZta-44" value="" style="rounded=0;whiteSpace=wrap;html=1;fontFamily=Gost Type B;fontStyle=2;align=center;" parent="vNc9h8LfgFrBhlQmuZta-0" vertex="1">
          <mxGeometry x="531.49" y="78.73000000000036" width="19.685" height="19.685" as="geometry" />
        </mxCell>
        <mxCell id="vNc9h8LfgFrBhlQmuZta-45" value="T" style="rounded=0;whiteSpace=wrap;html=1;fontFamily=Gost Type B;fontStyle=2;align=center;" parent="vNc9h8LfgFrBhlQmuZta-0" vertex="1">
          <mxGeometry x="551.17" y="78.71000000000038" width="19.685" height="19.685" as="geometry" />
        </mxCell>
        <mxCell id="vNc9h8LfgFrBhlQmuZta-46" value="" style="rounded=0;whiteSpace=wrap;html=1;fontFamily=Gost Type B;fontStyle=2;align=center;" parent="vNc9h8LfgFrBhlQmuZta-0" vertex="1">
          <mxGeometry x="570.8499999999999" y="78.73000000000036" width="19.685" height="19.685" as="geometry" />
        </mxCell>
        <mxCell id="KmadikrXG5YNH0EHwdV6-0" value="&lt;span style=&quot;&quot;&gt;Сенько Н.С.&lt;/span&gt;" style="rounded=0;whiteSpace=wrap;html=1;fontFamily=Gost Type B;fontStyle=2;align=left;" parent="TkMj4FX2ceQhgoEo25rc-1" vertex="1">
          <mxGeometry x="145.93" y="1052.0600000000002" width="90.551" height="19.685" as="geometry" />
        </mxCell>
        <mxCell id="cOht3wTo4zo1xAqaEmt8-0" value="&lt;font face=&quot;GOST type B&quot;&gt;НАЧАЛО&lt;/font&gt;" style="rounded=1;whiteSpace=wrap;html=1;arcSize=50;" parent="TkMj4FX2ceQhgoEo25rc-1" vertex="1">
          <mxGeometry x="351.705" y="230" width="120" height="60" as="geometry" />
        </mxCell>
        <mxCell id="cOht3wTo4zo1xAqaEmt8-1" value="&lt;font face=&quot;GOST type B&quot;&gt;Инициализация системных функций&lt;/font&gt;" style="rounded=0;whiteSpace=wrap;html=1;" parent="TkMj4FX2ceQhgoEo25rc-1" vertex="1">
          <mxGeometry x="351.705" y="330" width="120" height="60" as="geometry" />
        </mxCell>
        <mxCell id="cOht3wTo4zo1xAqaEmt8-2" value="" style="endArrow=none;html=1;rounded=0;exitX=0.5;exitY=1;exitDx=0;exitDy=0;entryX=0.5;entryY=0;entryDx=0;entryDy=0;startFill=0;" parent="TkMj4FX2ceQhgoEo25rc-1" source="cOht3wTo4zo1xAqaEmt8-0" target="cOht3wTo4zo1xAqaEmt8-1" edge="1">
          <mxGeometry width="50" height="50" relative="1" as="geometry">
            <mxPoint x="363.44" y="560" as="sourcePoint" />
            <mxPoint x="413.44" y="510" as="targetPoint" />
          </mxGeometry>
        </mxCell>
        <mxCell id="cOht3wTo4zo1xAqaEmt8-3" style="edgeStyle=orthogonalEdgeStyle;rounded=0;orthogonalLoop=1;jettySize=auto;html=1;exitX=1;exitY=0.5;exitDx=0;exitDy=0;entryX=1;entryY=0.5;entryDx=0;entryDy=0;" parent="TkMj4FX2ceQhgoEo25rc-1" source="cOht3wTo4zo1xAqaEmt8-7" target="cOht3wTo4zo1xAqaEmt8-10" edge="1">
          <mxGeometry relative="1" as="geometry" />
        </mxCell>
        <mxCell id="cOht3wTo4zo1xAqaEmt8-4" value="&lt;font face=&quot;GOST type B&quot;&gt;Нет&lt;/font&gt;" style="edgeLabel;html=1;align=center;verticalAlign=middle;resizable=0;points=[];" parent="cOht3wTo4zo1xAqaEmt8-3" vertex="1" connectable="0">
          <mxGeometry x="-0.155" y="1" relative="1" as="geometry">
            <mxPoint as="offset" />
          </mxGeometry>
        </mxCell>
        <mxCell id="cOht3wTo4zo1xAqaEmt8-5" style="edgeStyle=orthogonalEdgeStyle;rounded=0;orthogonalLoop=1;jettySize=auto;html=1;entryX=0.5;entryY=0;entryDx=0;entryDy=0;endArrow=none;startFill=0;" parent="TkMj4FX2ceQhgoEo25rc-1" source="cOht3wTo4zo1xAqaEmt8-7" target="cOht3wTo4zo1xAqaEmt8-11" edge="1">
          <mxGeometry relative="1" as="geometry">
            <Array as="points">
              <mxPoint x="318.16" y="680" />
              <mxPoint x="412.16" y="680" />
            </Array>
          </mxGeometry>
        </mxCell>
        <mxCell id="cOht3wTo4zo1xAqaEmt8-6" value="&lt;font face=&quot;GOST type B&quot;&gt;Да&lt;/font&gt;" style="edgeLabel;html=1;align=center;verticalAlign=middle;resizable=0;points=[];" parent="cOht3wTo4zo1xAqaEmt8-5" vertex="1" connectable="0">
          <mxGeometry x="-0.3848" relative="1" as="geometry">
            <mxPoint as="offset" />
          </mxGeometry>
        </mxCell>
        <mxCell id="cOht3wTo4zo1xAqaEmt8-7" value="&lt;font face=&quot;GOST type B&quot;&gt;Есть сигнал завершения&lt;/font&gt;" style="rhombus;whiteSpace=wrap;html=1;" parent="TkMj4FX2ceQhgoEo25rc-1" vertex="1">
          <mxGeometry x="318.16" y="430" width="187.09" height="80" as="geometry" />
        </mxCell>
        <mxCell id="cOht3wTo4zo1xAqaEmt8-8" value="" style="endArrow=none;html=1;rounded=0;exitX=0.5;exitY=1;exitDx=0;exitDy=0;entryX=0.5;entryY=0;entryDx=0;entryDy=0;startFill=0;" parent="TkMj4FX2ceQhgoEo25rc-1" source="cOht3wTo4zo1xAqaEmt8-1" target="cOht3wTo4zo1xAqaEmt8-7" edge="1">
          <mxGeometry width="50" height="50" relative="1" as="geometry">
            <mxPoint x="378.16" y="590" as="sourcePoint" />
            <mxPoint x="428.16" y="540" as="targetPoint" />
          </mxGeometry>
        </mxCell>
        <mxCell id="cOht3wTo4zo1xAqaEmt8-9" style="edgeStyle=orthogonalEdgeStyle;rounded=0;orthogonalLoop=1;jettySize=auto;html=1;exitX=0.5;exitY=1;exitDx=0;exitDy=0;" parent="TkMj4FX2ceQhgoEo25rc-1" source="cOht3wTo4zo1xAqaEmt8-10" edge="1">
          <mxGeometry relative="1" as="geometry">
            <mxPoint x="412.16" y="430" as="targetPoint" />
            <Array as="points">
              <mxPoint x="412.16" y="650" />
              <mxPoint x="568.16" y="650" />
              <mxPoint x="568.16" y="410" />
              <mxPoint x="412.16" y="410" />
            </Array>
          </mxGeometry>
        </mxCell>
        <mxCell id="cOht3wTo4zo1xAqaEmt8-10" value="&lt;font face=&quot;GOST type B&quot;&gt;Обработка системных вызовов файловой системы&lt;/font&gt;" style="rounded=0;whiteSpace=wrap;html=1;" parent="TkMj4FX2ceQhgoEo25rc-1" vertex="1">
          <mxGeometry x="352.16" y="570" width="120" height="60" as="geometry" />
        </mxCell>
        <mxCell id="cOht3wTo4zo1xAqaEmt8-11" value="&lt;font face=&quot;GOST type B&quot;&gt;КОНЕЦ&lt;/font&gt;" style="rounded=1;whiteSpace=wrap;html=1;arcSize=0;" parent="TkMj4FX2ceQhgoEo25rc-1" vertex="1">
          <mxGeometry x="352.16499999999996" y="720" width="120" height="60" as="geometry" />
        </mxCell>
      </root>
    </mxGraphModel>
  </diagram>
  <diagram name="Графические материалы" id="ZIGoGL9vP7dFf4iLEBtx">
    <mxGraphModel dx="1434" dy="837" grid="1" gridSize="10" guides="1" tooltips="1" connect="1" arrows="1" fold="1" page="1" pageScale="1" pageWidth="827" pageHeight="1169" math="0" shadow="0">
      <root>
        <mxCell id="nxMCEATHZgLqSvOZztzs-0" />
        <mxCell id="nxMCEATHZgLqSvOZztzs-1" parent="nxMCEATHZgLqSvOZztzs-0" />
        <mxCell id="nxMCEATHZgLqSvOZztzs-3" value="" style="group;strokeWidth=2;fontFamily=Gost Type B;fontStyle=2" parent="nxMCEATHZgLqSvOZztzs-1" vertex="1" connectable="0">
          <mxGeometry x="20" y="933.08" width="740" height="235.92000000000002" as="geometry" />
        </mxCell>
        <mxCell id="nxMCEATHZgLqSvOZztzs-4" value="" style="rounded=0;whiteSpace=wrap;html=1;fontFamily=Gost Type B;fontStyle=2;align=left;" parent="nxMCEATHZgLqSvOZztzs-3" vertex="1">
          <mxGeometry x="0.02" y="196.82000000000028" width="66.929" height="19.685" as="geometry" />
        </mxCell>
        <mxCell id="nxMCEATHZgLqSvOZztzs-5" value="Утвердил" style="rounded=0;whiteSpace=wrap;html=1;fontFamily=Gost Type B;fontStyle=2;align=left;" parent="nxMCEATHZgLqSvOZztzs-3" vertex="1">
          <mxGeometry x="0.02" y="177.1400000000002" width="66.929" height="19.685" as="geometry" />
        </mxCell>
        <mxCell id="nxMCEATHZgLqSvOZztzs-6" value="Т.контроль" style="rounded=0;whiteSpace=wrap;html=1;fontFamily=Gost Type B;fontStyle=2;align=left;" parent="nxMCEATHZgLqSvOZztzs-3" vertex="1">
          <mxGeometry y="137.7800000000002" width="66.929" height="19.685" as="geometry" />
        </mxCell>
        <mxCell id="nxMCEATHZgLqSvOZztzs-7" value="Проверил" style="rounded=0;whiteSpace=wrap;html=1;fontFamily=Gost Type B;fontStyle=2;align=left;" parent="nxMCEATHZgLqSvOZztzs-3" vertex="1">
          <mxGeometry y="118.10000000000014" width="66.929" height="19.685" as="geometry" />
        </mxCell>
        <mxCell id="nxMCEATHZgLqSvOZztzs-8" value="Разработал" style="rounded=0;whiteSpace=wrap;html=1;fontFamily=Gost Type B;fontStyle=2;align=left;" parent="nxMCEATHZgLqSvOZztzs-3" vertex="1">
          <mxGeometry y="98.42000000000007" width="66.929" height="19.685" as="geometry" />
        </mxCell>
        <mxCell id="nxMCEATHZgLqSvOZztzs-9" value="Сенько Н.С." style="rounded=0;whiteSpace=wrap;html=1;fontFamily=Gost Type B;fontStyle=2;align=left;" parent="nxMCEATHZgLqSvOZztzs-3" vertex="1">
          <mxGeometry x="66.93" y="98.41000000000008" width="90.551" height="19.685" as="geometry" />
        </mxCell>
        <mxCell id="nxMCEATHZgLqSvOZztzs-10" value="Сиротко С.И." style="rounded=0;whiteSpace=wrap;html=1;fontFamily=Gost Type B;fontStyle=2;align=left;" parent="nxMCEATHZgLqSvOZztzs-3" vertex="1">
          <mxGeometry x="66.93" y="118.09000000000015" width="90.551" height="19.685" as="geometry" />
        </mxCell>
        <mxCell id="nxMCEATHZgLqSvOZztzs-11" value="Гриценко Н.Ю." style="rounded=0;whiteSpace=wrap;html=1;fontFamily=Gost Type B;fontStyle=2;align=left;" parent="nxMCEATHZgLqSvOZztzs-3" vertex="1">
          <mxGeometry x="66.93" y="137.7900000000002" width="90.551" height="19.685" as="geometry" />
        </mxCell>
        <mxCell id="nxMCEATHZgLqSvOZztzs-12" value="&lt;span style=&quot;font-size: 12px;&quot;&gt;Сиротко С.И.&lt;/span&gt;" style="rounded=0;whiteSpace=wrap;html=1;fontSize=10;fontFamily=Gost Type B;fontStyle=2;align=left;" parent="nxMCEATHZgLqSvOZztzs-3" vertex="1">
          <mxGeometry x="66.95" y="177.1500000000002" width="90.551" height="19.685" as="geometry" />
        </mxCell>
        <mxCell id="nxMCEATHZgLqSvOZztzs-13" value="" style="rounded=0;whiteSpace=wrap;html=1;fontFamily=Gost Type B;fontStyle=2;align=left;" parent="nxMCEATHZgLqSvOZztzs-3" vertex="1">
          <mxGeometry x="66.95" y="196.82000000000028" width="90.551" height="19.685" as="geometry" />
        </mxCell>
        <mxCell id="nxMCEATHZgLqSvOZztzs-14" value="" style="rounded=0;whiteSpace=wrap;html=1;fontFamily=Gost Type B;fontStyle=2;align=left;" parent="nxMCEATHZgLqSvOZztzs-3" vertex="1">
          <mxGeometry x="157.50000000000003" y="196.82000000000028" width="59.055" height="19.685" as="geometry" />
        </mxCell>
        <mxCell id="nxMCEATHZgLqSvOZztzs-15" value="" style="rounded=0;whiteSpace=wrap;html=1;fontFamily=Gost Type B;fontStyle=2;align=left;" parent="nxMCEATHZgLqSvOZztzs-3" vertex="1">
          <mxGeometry x="157.48000000000002" y="98.41000000000008" width="59.055" height="19.685" as="geometry" />
        </mxCell>
        <mxCell id="nxMCEATHZgLqSvOZztzs-16" value="" style="rounded=0;whiteSpace=wrap;html=1;fontFamily=Gost Type B;fontStyle=2;align=left;" parent="nxMCEATHZgLqSvOZztzs-3" vertex="1">
          <mxGeometry x="157.48000000000002" y="118.09000000000015" width="59.055" height="19.685" as="geometry" />
        </mxCell>
        <mxCell id="nxMCEATHZgLqSvOZztzs-17" value="" style="rounded=0;whiteSpace=wrap;html=1;fontFamily=Gost Type B;fontStyle=2;align=left;" parent="nxMCEATHZgLqSvOZztzs-3" vertex="1">
          <mxGeometry x="157.48000000000002" y="137.7900000000002" width="59.055" height="19.685" as="geometry" />
        </mxCell>
        <mxCell id="nxMCEATHZgLqSvOZztzs-18" value="" style="rounded=0;whiteSpace=wrap;html=1;fontFamily=Gost Type B;fontStyle=2;align=left;" parent="nxMCEATHZgLqSvOZztzs-3" vertex="1">
          <mxGeometry x="157.50000000000003" y="177.1500000000002" width="59.055" height="19.685" as="geometry" />
        </mxCell>
        <mxCell id="nxMCEATHZgLqSvOZztzs-19" value="" style="rounded=0;whiteSpace=wrap;html=1;fontFamily=Gost Type B;fontStyle=2;align=left;" parent="nxMCEATHZgLqSvOZztzs-3" vertex="1">
          <mxGeometry x="216.55000000000004" y="196.82000000000028" width="39.37" height="19.685" as="geometry" />
        </mxCell>
        <mxCell id="nxMCEATHZgLqSvOZztzs-20" value="" style="rounded=0;whiteSpace=wrap;html=1;fontFamily=Gost Type B;fontStyle=2;align=left;" parent="nxMCEATHZgLqSvOZztzs-3" vertex="1">
          <mxGeometry x="216.53000000000003" y="98.41000000000008" width="39.37" height="19.685" as="geometry" />
        </mxCell>
        <mxCell id="nxMCEATHZgLqSvOZztzs-21" value="" style="rounded=0;whiteSpace=wrap;html=1;fontFamily=Gost Type B;fontStyle=2;align=left;" parent="nxMCEATHZgLqSvOZztzs-3" vertex="1">
          <mxGeometry x="216.53000000000003" y="118.09000000000015" width="39.37" height="19.685" as="geometry" />
        </mxCell>
        <mxCell id="nxMCEATHZgLqSvOZztzs-22" value="" style="rounded=0;whiteSpace=wrap;html=1;fontFamily=Gost Type B;fontStyle=2;align=left;" parent="nxMCEATHZgLqSvOZztzs-3" vertex="1">
          <mxGeometry x="216.53000000000003" y="137.7900000000002" width="39.37" height="19.685" as="geometry" />
        </mxCell>
        <mxCell id="nxMCEATHZgLqSvOZztzs-23" value="" style="rounded=0;whiteSpace=wrap;html=1;fontFamily=Gost Type B;fontStyle=2;align=left;" parent="nxMCEATHZgLqSvOZztzs-3" vertex="1">
          <mxGeometry x="216.55000000000004" y="177.1500000000002" width="39.37" height="19.685" as="geometry" />
        </mxCell>
        <mxCell id="nxMCEATHZgLqSvOZztzs-24" value="№ докум." style="rounded=0;whiteSpace=wrap;html=1;fontFamily=Gost Type B;fontStyle=2;align=center;" parent="nxMCEATHZgLqSvOZztzs-3" vertex="1">
          <mxGeometry x="66.93" y="78.73000000000002" width="90.551" height="19.685" as="geometry" />
        </mxCell>
        <mxCell id="nxMCEATHZgLqSvOZztzs-25" value="Подпись" style="rounded=0;whiteSpace=wrap;html=1;fontFamily=Gost Type B;fontStyle=2;align=center;" parent="nxMCEATHZgLqSvOZztzs-3" vertex="1">
          <mxGeometry x="157.48000000000002" y="78.73000000000002" width="59.055" height="19.685" as="geometry" />
        </mxCell>
        <mxCell id="nxMCEATHZgLqSvOZztzs-26" value="Дата" style="rounded=0;whiteSpace=wrap;html=1;fontFamily=Gost Type B;fontStyle=2;align=center;" parent="nxMCEATHZgLqSvOZztzs-3" vertex="1">
          <mxGeometry x="216.53000000000003" y="78.73000000000002" width="39.37" height="19.685" as="geometry" />
        </mxCell>
        <mxCell id="nxMCEATHZgLqSvOZztzs-27" value="" style="rounded=0;whiteSpace=wrap;html=1;fontFamily=Gost Type B;fontStyle=2;align=left;" parent="nxMCEATHZgLqSvOZztzs-3" vertex="1">
          <mxGeometry x="66.93" y="59.049999999999955" width="90.551" height="19.685" as="geometry" />
        </mxCell>
        <mxCell id="nxMCEATHZgLqSvOZztzs-28" value="" style="rounded=0;whiteSpace=wrap;html=1;fontFamily=Gost Type B;fontStyle=2;align=left;" parent="nxMCEATHZgLqSvOZztzs-3" vertex="1">
          <mxGeometry x="157.48000000000002" y="59.049999999999955" width="59.055" height="19.685" as="geometry" />
        </mxCell>
        <mxCell id="nxMCEATHZgLqSvOZztzs-29" value="" style="rounded=0;whiteSpace=wrap;html=1;fontFamily=Gost Type B;fontStyle=2;align=left;" parent="nxMCEATHZgLqSvOZztzs-3" vertex="1">
          <mxGeometry x="216.53000000000003" y="59.049999999999955" width="39.37" height="19.685" as="geometry" />
        </mxCell>
        <mxCell id="nxMCEATHZgLqSvOZztzs-30" value="" style="rounded=0;whiteSpace=wrap;html=1;fontFamily=Gost Type B;fontStyle=2;align=left;" parent="nxMCEATHZgLqSvOZztzs-3" vertex="1">
          <mxGeometry x="66.93" y="39.370000000000005" width="90.551" height="19.685" as="geometry" />
        </mxCell>
        <mxCell id="nxMCEATHZgLqSvOZztzs-31" value="" style="rounded=0;whiteSpace=wrap;html=1;fontFamily=Gost Type B;fontStyle=2;align=left;" parent="nxMCEATHZgLqSvOZztzs-3" vertex="1">
          <mxGeometry x="157.48000000000002" y="39.370000000000005" width="59.055" height="19.685" as="geometry" />
        </mxCell>
        <mxCell id="nxMCEATHZgLqSvOZztzs-32" value="" style="rounded=0;whiteSpace=wrap;html=1;fontFamily=Gost Type B;fontStyle=2;align=left;" parent="nxMCEATHZgLqSvOZztzs-3" vertex="1">
          <mxGeometry x="216.53000000000003" y="39.370000000000005" width="39.37" height="19.685" as="geometry" />
        </mxCell>
        <mxCell id="nxMCEATHZgLqSvOZztzs-33" value="Изм." style="rounded=0;whiteSpace=wrap;html=1;fontFamily=Gost Type B;fontStyle=2;align=center;" parent="nxMCEATHZgLqSvOZztzs-3" vertex="1">
          <mxGeometry y="78.73000000000002" width="27.558999999999997" height="19.685" as="geometry" />
        </mxCell>
        <mxCell id="nxMCEATHZgLqSvOZztzs-34" value="Лист" style="rounded=0;whiteSpace=wrap;html=1;fontFamily=Gost Type B;fontStyle=2;align=center;" parent="nxMCEATHZgLqSvOZztzs-3" vertex="1">
          <mxGeometry x="27.560000000000002" y="78.73000000000002" width="39.37" height="19.685" as="geometry" />
        </mxCell>
        <mxCell id="nxMCEATHZgLqSvOZztzs-35" value="" style="rounded=0;whiteSpace=wrap;html=1;fontFamily=Gost Type B;fontStyle=2;align=left;" parent="nxMCEATHZgLqSvOZztzs-3" vertex="1">
          <mxGeometry y="59.049999999999955" width="27.558999999999997" height="19.685" as="geometry" />
        </mxCell>
        <mxCell id="nxMCEATHZgLqSvOZztzs-36" value="" style="rounded=0;whiteSpace=wrap;html=1;fontFamily=Gost Type B;fontStyle=2;align=left;" parent="nxMCEATHZgLqSvOZztzs-3" vertex="1">
          <mxGeometry x="27.560000000000002" y="59.049999999999955" width="39.37" height="19.685" as="geometry" />
        </mxCell>
        <mxCell id="nxMCEATHZgLqSvOZztzs-37" value="" style="rounded=0;whiteSpace=wrap;html=1;fontFamily=Gost Type B;fontStyle=2;align=left;" parent="nxMCEATHZgLqSvOZztzs-3" vertex="1">
          <mxGeometry y="39.370000000000005" width="27.558999999999997" height="19.685" as="geometry" />
        </mxCell>
        <mxCell id="nxMCEATHZgLqSvOZztzs-38" value="" style="rounded=0;whiteSpace=wrap;html=1;fontFamily=Gost Type B;fontStyle=2;align=left;" parent="nxMCEATHZgLqSvOZztzs-3" vertex="1">
          <mxGeometry x="27.560000000000002" y="39.370000000000005" width="39.37" height="19.685" as="geometry" />
        </mxCell>
        <mxCell id="nxMCEATHZgLqSvOZztzs-39" value="Н.контроль" style="rounded=0;whiteSpace=wrap;html=1;fontFamily=Gost Type B;fontStyle=2;align=left;" parent="nxMCEATHZgLqSvOZztzs-3" vertex="1">
          <mxGeometry y="157.46000000000015" width="66.929" height="19.685" as="geometry" />
        </mxCell>
        <mxCell id="nxMCEATHZgLqSvOZztzs-40" value="Гриценко Н.Ю." style="rounded=0;whiteSpace=wrap;html=1;fontFamily=Gost Type B;fontStyle=2;align=left;" parent="nxMCEATHZgLqSvOZztzs-3" vertex="1">
          <mxGeometry x="66.93" y="157.47000000000014" width="90.551" height="19.685" as="geometry" />
        </mxCell>
        <mxCell id="nxMCEATHZgLqSvOZztzs-41" value="" style="rounded=0;whiteSpace=wrap;html=1;fontFamily=Gost Type B;fontStyle=2;align=left;" parent="nxMCEATHZgLqSvOZztzs-3" vertex="1">
          <mxGeometry x="157.48000000000002" y="157.47000000000014" width="59.055" height="19.685" as="geometry" />
        </mxCell>
        <mxCell id="nxMCEATHZgLqSvOZztzs-42" value="" style="rounded=0;whiteSpace=wrap;html=1;fontFamily=Gost Type B;fontStyle=2;align=left;" parent="nxMCEATHZgLqSvOZztzs-3" vertex="1">
          <mxGeometry x="216.53000000000003" y="157.47000000000014" width="39.37" height="19.685" as="geometry" />
        </mxCell>
        <mxCell id="nxMCEATHZgLqSvOZztzs-43" value="" style="rounded=0;whiteSpace=wrap;html=1;fontFamily=Gost Type B;fontStyle=2;align=left;" parent="nxMCEATHZgLqSvOZztzs-3" vertex="1">
          <mxGeometry x="66.93" y="19.67999999999995" width="90.551" height="19.685" as="geometry" />
        </mxCell>
        <mxCell id="nxMCEATHZgLqSvOZztzs-44" value="" style="rounded=0;whiteSpace=wrap;html=1;fontFamily=Gost Type B;fontStyle=2;align=left;" parent="nxMCEATHZgLqSvOZztzs-3" vertex="1">
          <mxGeometry x="157.48000000000002" y="19.67999999999995" width="59.055" height="19.685" as="geometry" />
        </mxCell>
        <mxCell id="nxMCEATHZgLqSvOZztzs-45" value="" style="rounded=0;whiteSpace=wrap;html=1;fontFamily=Gost Type B;fontStyle=2;align=left;" parent="nxMCEATHZgLqSvOZztzs-3" vertex="1">
          <mxGeometry x="216.53000000000003" y="19.67999999999995" width="39.37" height="19.685" as="geometry" />
        </mxCell>
        <mxCell id="nxMCEATHZgLqSvOZztzs-46" value="" style="rounded=0;whiteSpace=wrap;html=1;fontFamily=Gost Type B;fontStyle=2;align=left;" parent="nxMCEATHZgLqSvOZztzs-3" vertex="1">
          <mxGeometry x="66.93" width="90.551" height="19.685" as="geometry" />
        </mxCell>
        <mxCell id="nxMCEATHZgLqSvOZztzs-47" value="" style="rounded=0;whiteSpace=wrap;html=1;fontFamily=Gost Type B;fontStyle=2;align=left;" parent="nxMCEATHZgLqSvOZztzs-3" vertex="1">
          <mxGeometry x="157.48000000000002" width="59.055" height="19.685" as="geometry" />
        </mxCell>
        <mxCell id="nxMCEATHZgLqSvOZztzs-48" value="" style="rounded=0;whiteSpace=wrap;html=1;fontFamily=Gost Type B;fontStyle=2;align=left;" parent="nxMCEATHZgLqSvOZztzs-3" vertex="1">
          <mxGeometry x="216.53000000000003" width="39.37" height="19.685" as="geometry" />
        </mxCell>
        <mxCell id="nxMCEATHZgLqSvOZztzs-49" value="" style="rounded=0;whiteSpace=wrap;html=1;fontFamily=Gost Type B;fontStyle=2;align=left;" parent="nxMCEATHZgLqSvOZztzs-3" vertex="1">
          <mxGeometry y="19.67999999999995" width="27.558999999999997" height="19.685" as="geometry" />
        </mxCell>
        <mxCell id="nxMCEATHZgLqSvOZztzs-50" value="" style="rounded=0;whiteSpace=wrap;html=1;fontFamily=Gost Type B;fontStyle=2;align=left;" parent="nxMCEATHZgLqSvOZztzs-3" vertex="1">
          <mxGeometry x="27.560000000000002" y="19.67999999999995" width="39.37" height="19.685" as="geometry" />
        </mxCell>
        <mxCell id="nxMCEATHZgLqSvOZztzs-51" value="" style="rounded=0;whiteSpace=wrap;html=1;fontFamily=Gost Type B;fontStyle=2;align=left;" parent="nxMCEATHZgLqSvOZztzs-3" vertex="1">
          <mxGeometry width="27.558999999999997" height="19.685" as="geometry" />
        </mxCell>
        <mxCell id="nxMCEATHZgLqSvOZztzs-52" value="" style="rounded=0;whiteSpace=wrap;html=1;fontFamily=Gost Type B;fontStyle=2;align=left;" parent="nxMCEATHZgLqSvOZztzs-3" vertex="1">
          <mxGeometry x="27.560000000000002" width="39.37" height="19.685" as="geometry" />
        </mxCell>
        <mxCell id="nxMCEATHZgLqSvOZztzs-53" value="&lt;font style=&quot;font-size: 26px;&quot;&gt;ГУИР.253505.001 ПЛ&lt;/font&gt;" style="rounded=0;whiteSpace=wrap;html=1;fontFamily=Gost Type B;fontStyle=2;align=center;" parent="nxMCEATHZgLqSvOZztzs-3" vertex="1">
          <mxGeometry x="255.9" width="472.5" height="59.06" as="geometry" />
        </mxCell>
        <mxCell id="nxMCEATHZgLqSvOZztzs-54" value="&lt;span style=&quot;font-style: normal; text-align: start; font-size: 14pt;&quot; lang=&quot;RU&quot;&gt;&lt;font face=&quot;Gost Type B&quot;&gt;Графический интерфейс пользователя.&lt;/font&gt;&lt;/span&gt;&lt;div&gt;&lt;span style=&quot;font-style: normal; text-align: start; font-size: 14pt;&quot; lang=&quot;RU&quot;&gt;&lt;font face=&quot;Gost Type B&quot;&gt;Плакат&lt;/font&gt;&lt;/span&gt;&lt;/div&gt;" style="rounded=0;whiteSpace=wrap;html=1;fontFamily=Gost Type B;fontStyle=2;align=center;" parent="nxMCEATHZgLqSvOZztzs-3" vertex="1">
          <mxGeometry x="255.92000000000002" y="59.050000000000296" width="275.59" height="98.425" as="geometry" />
        </mxCell>
        <mxCell id="nxMCEATHZgLqSvOZztzs-55" value="" style="rounded=0;whiteSpace=wrap;html=1;fontFamily=Gost Type B;fontStyle=2;align=center;" parent="nxMCEATHZgLqSvOZztzs-3" vertex="1">
          <mxGeometry x="255.92000000000002" y="157.45000000000027" width="275.59" height="59.055" as="geometry" />
        </mxCell>
        <mxCell id="nxMCEATHZgLqSvOZztzs-56" value="Литера" style="rounded=0;whiteSpace=wrap;html=1;fontFamily=Gost Type B;fontStyle=2;align=center;" parent="nxMCEATHZgLqSvOZztzs-3" vertex="1">
          <mxGeometry x="531.49" y="59.05000000000007" width="59.055" height="19.685" as="geometry" />
        </mxCell>
        <mxCell id="nxMCEATHZgLqSvOZztzs-57" value="Масса" style="rounded=0;whiteSpace=wrap;html=1;fontFamily=Gost Type B;fontStyle=2;align=center;" parent="nxMCEATHZgLqSvOZztzs-3" vertex="1">
          <mxGeometry x="590.57" y="59.04000000000008" width="59.055" height="19.685" as="geometry" />
        </mxCell>
        <mxCell id="nxMCEATHZgLqSvOZztzs-58" value="Масштаб" style="rounded=0;whiteSpace=wrap;html=1;fontFamily=Gost Type B;fontStyle=2;align=center;" parent="nxMCEATHZgLqSvOZztzs-3" vertex="1">
          <mxGeometry x="649.61" y="59.04000000000008" width="78.74" height="19.685" as="geometry" />
        </mxCell>
        <mxCell id="nxMCEATHZgLqSvOZztzs-59" value="" style="rounded=0;whiteSpace=wrap;html=1;fontFamily=Gost Type B;fontStyle=2;align=center;fontSize=14;" parent="nxMCEATHZgLqSvOZztzs-3" vertex="1">
          <mxGeometry x="649.6" y="78.72000000000003" width="78.74" height="59.055" as="geometry" />
        </mxCell>
        <mxCell id="nxMCEATHZgLqSvOZztzs-60" value="" style="rounded=0;whiteSpace=wrap;html=1;fontFamily=Gost Type B;fontStyle=2;align=center;" parent="nxMCEATHZgLqSvOZztzs-3" vertex="1">
          <mxGeometry x="590.57" y="78.72000000000003" width="59.055" height="59.055" as="geometry" />
        </mxCell>
        <mxCell id="nxMCEATHZgLqSvOZztzs-61" value="T" style="rounded=0;whiteSpace=wrap;html=1;fontFamily=Gost Type B;fontStyle=2;align=center;" parent="nxMCEATHZgLqSvOZztzs-3" vertex="1">
          <mxGeometry x="531.49" y="78.72000000000003" width="19.685" height="59.055" as="geometry" />
        </mxCell>
        <mxCell id="nxMCEATHZgLqSvOZztzs-62" value="" style="rounded=0;whiteSpace=wrap;html=1;fontFamily=Gost Type B;fontStyle=2;align=center;" parent="nxMCEATHZgLqSvOZztzs-3" vertex="1">
          <mxGeometry x="551.2" y="78.72000000000003" width="19.685" height="59.055" as="geometry" />
        </mxCell>
        <mxCell id="nxMCEATHZgLqSvOZztzs-63" value="" style="rounded=0;whiteSpace=wrap;html=1;fontFamily=Gost Type B;fontStyle=2;align=center;" parent="nxMCEATHZgLqSvOZztzs-3" vertex="1">
          <mxGeometry x="570.8900000000001" y="78.74000000000001" width="19.685" height="59.055" as="geometry" />
        </mxCell>
        <mxCell id="nxMCEATHZgLqSvOZztzs-64" value="Лист" style="rounded=0;whiteSpace=wrap;html=1;fontFamily=Gost Type B;fontStyle=2;align=center;" parent="nxMCEATHZgLqSvOZztzs-3" vertex="1">
          <mxGeometry x="531.52" y="137.79000000000008" width="78.74" height="19.685" as="geometry" />
        </mxCell>
        <mxCell id="nxMCEATHZgLqSvOZztzs-65" value="Листов 1" style="rounded=0;whiteSpace=wrap;html=1;fontFamily=Gost Type B;fontStyle=2;align=center;" parent="nxMCEATHZgLqSvOZztzs-3" vertex="1">
          <mxGeometry x="610.25" y="137.77000000000032" width="118.11" height="19.68" as="geometry" />
        </mxCell>
        <mxCell id="nxMCEATHZgLqSvOZztzs-66" value="&lt;font style=&quot;font-size: 16px;&quot;&gt;Кафедра информатики, &lt;br&gt;гр. 253505&lt;/font&gt;" style="rounded=0;whiteSpace=wrap;html=1;fontFamily=Gost Type B;fontStyle=2;align=center;" parent="nxMCEATHZgLqSvOZztzs-3" vertex="1">
          <mxGeometry x="531.49" y="157.47000000000037" width="196.85" height="59.055" as="geometry" />
        </mxCell>
      </root>
    </mxGraphModel>
  </diagram>
</mxfile>
